<svg height="511pt" viewBox="0 -25 511.99911 511" width="511pt" xmlns="http://www.w3.org/2000/svg"><path d="m504.292969 415.507812c-.496094-.28125-46.433594-26.347656-79.050781-62.386718 23.070312-36.648438 35.210937-78.714844 35.210937-122.394532 0-61.496093-23.949219-119.3125-67.433594-162.796874-43.484375-43.480469-101.300781-67.429688-162.792969-67.429688-61.496093 0-119.3125 23.949219-162.792968 67.429688-43.484375 43.484374-67.433594 101.300781-67.433594 162.796874 0 61.492188 23.949219 119.308594 67.433594 162.792969 43.480468 43.484375 101.296875 67.429688 162.792968 67.429688 39.25 0 77.6875-9.96875 111.75-28.902344 67.128907 37.320313 155.273438 12.277344 159.140626 11.148437 5.839843-1.707031 10.089843-6.746093 10.78125-12.789062.695312-6.046875-2.300782-11.914062-7.605469-14.898438zm-171.578125-102.464843h-204.976563c-8.351562 0-15.117187-6.769531-15.117187-15.117188 0-8.347656 6.765625-15.117187 15.117187-15.117187h204.976563c8.347656 0 15.117187 6.769531 15.117187 15.117187 0 8.347657-6.769531 15.117188-15.117187 15.117188zm0-67.195313h-204.976563c-8.351562 0-15.117187-6.769531-15.117187-15.117187 0-8.351563 6.765625-15.121094 15.117187-15.121094h204.976563c8.347656 0 15.117187 6.769531 15.117187 15.121094 0 8.347656-6.769531 15.117187-15.117187 15.117187zm0-67.199218h-204.976563c-8.351562 0-15.117187-6.765626-15.117187-15.117188 0-8.347656 6.765625-15.117188 15.117187-15.117188h204.976563c8.347656 0 15.117187 6.769532 15.117187 15.117188 0 8.351562-6.769531 15.117188-15.117187 15.117188zm0 0"/></svg>