<svg xmlns="http://www.w3.org/2000/svg" width="14" height="12.25" viewBox="0 0 14 12.25"><defs><style>.a{fill:#888;}</style></defs><path class="a" d="M10.129,36.382A1.75,1.75,0,0,0,8.609,35.5H5.39a1.75,1.75,0,0,0-1.52.882L.99,41.423a.875.875,0,0,0-.115.434v1.518a.875.875,0,0,0,.875.875h10.5a.875.875,0,0,0,.875-.875V41.857a.875.875,0,0,0-.115-.434ZM7,41.625a1.969,1.969,0,1,1,1.969-1.969A1.969,1.969,0,0,1,7,41.625Zm6.841-7.137a10.648,10.648,0,0,0-13.682,0A.45.45,0,0,0,0,34.834v1.541a.437.437,0,0,0,.437.438H2.354a.437.437,0,0,0,.391-.242L3.5,34.625A8.733,8.733,0,0,1,7,33.969a8.738,8.738,0,0,1,3.5.656l.754,1.946a.437.437,0,0,0,.391.242h1.917A.437.437,0,0,0,14,36.375V34.834a.45.45,0,0,0-.159-.346Z" transform="translate(0 -32)"/></svg>